<?xml version="1.0" encoding="UTF-8"?>
<svg width="116px" height="28px" viewBox="0 0 116 28" version="1.1" xmlns="http://www.w3.org/2000/svg" xmlns:xlink="http://www.w3.org/1999/xlink">
    <!-- Generator: Sketch 42 (36781) - http://www.bohemiancoding.com/sketch -->
    <title>obeder</title>
    <desc>Created with Sketch.</desc>
    <defs></defs>
    <g id="Intro" stroke="none" stroke-width="1" fill="none" fill-rule="evenodd">
        <g id="Mobile-Portrait" transform="translate(-102.000000, -228.000000)" fill="#000000">
            <path d="M121.644531,245.419922 C121.644531,246.826179 121.392581,248.135736 120.888672,249.348633 C120.384763,250.56153 119.699223,251.610347 118.832031,252.495117 C117.964839,253.379887 116.948248,254.077146 115.782227,254.586914 C114.616205,255.096682 113.365241,255.351562 112.029297,255.351562 C110.705072,255.351562 109.459967,255.096682 108.293945,254.586914 C107.127924,254.077146 106.108403,253.379887 105.235352,252.495117 C104.3623,251.610347 103.673831,250.56153 103.169922,249.348633 C102.666013,248.135736 102.414063,246.826179 102.414063,245.419922 C102.414063,243.990227 102.666013,242.666022 103.169922,241.447266 C103.673831,240.22851 104.3623,239.176762 105.235352,238.291992 C106.108403,237.407222 107.127924,236.712893 108.293945,236.208984 C109.459967,235.705076 110.705072,235.453125 112.029297,235.453125 C113.365241,235.453125 114.616205,235.690427 115.782227,236.165039 C116.948248,236.639651 117.964839,237.313472 118.832031,238.186523 C119.699223,239.059575 120.384763,240.108392 120.888672,241.333008 C121.392581,242.557623 121.644531,243.919914 121.644531,245.419922 Z M116.810547,245.419922 C116.810547,244.646481 116.684572,243.946292 116.432617,243.319336 C116.180663,242.69238 115.837893,242.153323 115.404297,241.702148 C114.970701,241.250974 114.46387,240.905275 113.883789,240.665039 C113.303708,240.424803 112.68555,240.304688 112.029297,240.304688 C111.373044,240.304688 110.754886,240.424803 110.174805,240.665039 C109.594724,240.905275 109.090822,241.250974 108.663086,241.702148 C108.235349,242.153323 107.898439,242.69238 107.652344,243.319336 C107.406249,243.946292 107.283203,244.646481 107.283203,245.419922 C107.283203,246.146488 107.406249,246.820309 107.652344,247.441406 C107.898439,248.062503 108.235349,248.60156 108.663086,249.058594 C109.090822,249.515627 109.594724,249.875975 110.174805,250.139648 C110.754886,250.403322 111.373044,250.535156 112.029297,250.535156 C112.68555,250.535156 113.303708,250.412111 113.883789,250.166016 C114.46387,249.919921 114.970701,249.574221 115.404297,249.128906 C115.837893,248.683592 116.180663,248.144534 116.432617,247.511719 C116.684572,246.878903 116.810547,246.181644 116.810547,245.419922 Z M143.142578,245.419922 C143.142578,246.896492 142.890628,248.244135 142.386719,249.462891 C141.88281,250.681647 141.19727,251.727535 140.330078,252.600586 C139.462886,253.473637 138.446295,254.150388 137.280273,254.630859 C136.114252,255.111331 134.863288,255.351562 133.527344,255.351562 C132.203118,255.351562 130.958014,255.105471 129.791992,254.613281 C128.625971,254.121091 127.60645,253.435551 126.733398,252.556641 C125.860347,251.67773 125.171878,250.631842 124.667969,249.418945 C124.16406,248.206049 123.912109,246.873054 123.912109,245.419922 L123.912109,228.685547 L128.728516,228.685547 L128.728516,237.474609 C128.986329,237.146483 129.299803,236.853517 129.668945,236.595703 C130.038088,236.337889 130.436521,236.126954 130.864258,235.962891 C131.291994,235.798827 131.734373,235.672852 132.191406,235.584961 C132.64844,235.49707 133.093748,235.453125 133.527344,235.453125 C134.863288,235.453125 136.114252,235.702146 137.280273,236.200195 C138.446295,236.698245 139.462886,237.392574 140.330078,238.283203 C141.19727,239.173833 141.88281,240.22558 142.386719,241.438477 C142.890628,242.651373 143.142578,243.978508 143.142578,245.419922 Z M138.308594,245.419922 C138.308594,244.693356 138.182618,244.016605 137.930664,243.389648 C137.67871,242.762692 137.33594,242.220705 136.902344,241.763672 C136.468748,241.306638 135.961917,240.94922 135.381836,240.691406 C134.801755,240.433592 134.183597,240.304688 133.527344,240.304688 C132.87109,240.304688 132.252933,240.448241 131.672852,240.735352 C131.092771,241.022462 130.58594,241.403318 130.152344,241.87793 C129.718748,242.352541 129.378907,242.897458 129.132813,243.512695 C128.886718,244.127933 128.763672,244.763669 128.763672,245.419922 C128.763672,246.146488 128.886718,246.820309 129.132813,247.441406 C129.378907,248.062503 129.718748,248.60156 130.152344,249.058594 C130.58594,249.515627 131.092771,249.875975 131.672852,250.139648 C132.252933,250.403322 132.87109,250.535156 133.527344,250.535156 C134.183597,250.535156 134.801755,250.403322 135.381836,250.139648 C135.961917,249.875975 136.468748,249.515627 136.902344,249.058594 C137.33594,248.60156 137.67871,248.062503 137.930664,247.441406 C138.182618,246.820309 138.308594,246.146488 138.308594,245.419922 Z M153.285156,250.394531 C153.472657,250.453125 153.660155,250.491211 153.847656,250.508789 C154.035157,250.526367 154.222655,250.535156 154.410156,250.535156 C154.878909,250.535156 155.330076,250.470704 155.763672,250.341797 C156.197268,250.21289 156.60449,250.028322 156.985352,249.788086 C157.366213,249.54785 157.706053,249.254885 158.004883,248.90918 C158.303712,248.563475 158.546874,248.17969 158.734375,247.757812 L162.25,251.291016 C161.804685,251.923831 161.291995,252.492185 160.711914,252.996094 C160.131833,253.500003 159.504886,253.927733 158.831055,254.279297 C158.157223,254.630861 157.448246,254.89746 156.704102,255.079102 C155.959957,255.260743 155.195316,255.351562 154.410156,255.351562 C153.085931,255.351562 151.840826,255.105471 150.674805,254.613281 C149.508783,254.121091 148.489262,253.435551 147.616211,252.556641 C146.74316,251.67773 146.05469,250.631842 145.550781,249.418945 C145.046872,248.206049 144.794922,246.873054 144.794922,245.419922 C144.794922,243.931633 145.046872,242.572272 145.550781,241.341797 C146.05469,240.111322 146.74316,239.062504 147.616211,238.195312 C148.489262,237.328121 149.508783,236.654299 150.674805,236.173828 C151.840826,235.693357 153.085931,235.453125 154.410156,235.453125 C155.195316,235.453125 155.962887,235.546874 156.712891,235.734375 C157.462894,235.921876 158.174801,236.191404 158.848633,236.542969 C159.522464,236.894533 160.152341,237.325193 160.738281,237.834961 C161.324222,238.344729 161.839842,238.916012 162.285156,239.548828 L153.285156,250.394531 Z M155.746094,240.498047 C155.523436,240.416015 155.303712,240.363281 155.086914,240.339844 C154.870116,240.316406 154.644532,240.304688 154.410156,240.304688 C153.753903,240.304688 153.135745,240.424803 152.555664,240.665039 C151.975583,240.905275 151.471682,241.248045 151.043945,241.693359 C150.616209,242.138674 150.279298,242.674802 150.033203,243.301758 C149.787108,243.928714 149.664063,244.634762 149.664063,245.419922 C149.664063,245.595704 149.672851,245.794921 149.69043,246.017578 C149.708008,246.240235 149.737304,246.465819 149.77832,246.694336 C149.819336,246.922853 149.86914,247.142577 149.927734,247.353516 C149.986328,247.564454 150.0625,247.751952 150.15625,247.916016 L155.746094,240.498047 Z M182.746094,255 L181.585938,255 L179.722656,252.416016 C179.265623,252.826174 178.782229,253.209959 178.272461,253.567383 C177.762693,253.924806 177.226565,254.23535 176.664063,254.499023 C176.10156,254.762697 175.524417,254.970702 174.932617,255.123047 C174.340817,255.275391 173.740237,255.351562 173.130859,255.351562 C171.806634,255.351562 170.561529,255.102542 169.395508,254.604492 C168.229486,254.106443 167.209965,253.415043 166.336914,252.530273 C165.463863,251.645503 164.775393,250.596686 164.271484,249.383789 C163.767576,248.170892 163.515625,246.849617 163.515625,245.419922 C163.515625,244.001946 163.767576,242.6836 164.271484,241.464844 C164.775393,240.246088 165.463863,239.191411 166.336914,238.300781 C167.209965,237.410152 168.229486,236.712893 169.395508,236.208984 C170.561529,235.705076 171.806634,235.453125 173.130859,235.453125 C173.552736,235.453125 173.989256,235.488281 174.44043,235.558594 C174.891604,235.628907 175.331053,235.743163 175.758789,235.901367 C176.186526,236.059571 176.587889,236.267577 176.962891,236.525391 C177.337893,236.783204 177.654296,237.099607 177.912109,237.474609 L177.912109,228.685547 L182.746094,228.685547 L182.746094,255 Z M177.912109,245.419922 C177.912109,244.763669 177.786134,244.127933 177.53418,243.512695 C177.282225,242.897458 176.939455,242.352541 176.505859,241.87793 C176.072263,241.403318 175.565433,241.022462 174.985352,240.735352 C174.405271,240.448241 173.787113,240.304688 173.130859,240.304688 C172.474606,240.304688 171.856448,240.421874 171.276367,240.65625 C170.696286,240.890626 170.192385,241.227537 169.764648,241.666992 C169.336912,242.106448 169.000001,242.642575 168.753906,243.275391 C168.507811,243.908206 168.384766,244.623043 168.384766,245.419922 C168.384766,246.111332 168.507811,246.767575 168.753906,247.388672 C169.000001,248.009769 169.336912,248.554685 169.764648,249.023438 C170.192385,249.49219 170.696286,249.861327 171.276367,250.130859 C171.856448,250.400392 172.474606,250.535156 173.130859,250.535156 C173.787113,250.535156 174.405271,250.391603 174.985352,250.104492 C175.565433,249.817381 176.072263,249.436526 176.505859,248.961914 C176.939455,248.487302 177.282225,247.942386 177.53418,247.327148 C177.786134,246.711911 177.912109,246.076175 177.912109,245.419922 Z M193.890625,250.394531 C194.078126,250.453125 194.265624,250.491211 194.453125,250.508789 C194.640626,250.526367 194.828124,250.535156 195.015625,250.535156 C195.484377,250.535156 195.935545,250.470704 196.369141,250.341797 C196.802737,250.21289 197.209959,250.028322 197.59082,249.788086 C197.971682,249.54785 198.311522,249.254885 198.610352,248.90918 C198.909181,248.563475 199.152343,248.17969 199.339844,247.757812 L202.855469,251.291016 C202.410154,251.923831 201.897464,252.492185 201.317383,252.996094 C200.737302,253.500003 200.110355,253.927733 199.436523,254.279297 C198.762692,254.630861 198.053715,254.89746 197.30957,255.079102 C196.565426,255.260743 195.800785,255.351562 195.015625,255.351562 C193.6914,255.351562 192.446295,255.105471 191.280273,254.613281 C190.114252,254.121091 189.094731,253.435551 188.22168,252.556641 C187.348628,251.67773 186.660159,250.631842 186.15625,249.418945 C185.652341,248.206049 185.400391,246.873054 185.400391,245.419922 C185.400391,243.931633 185.652341,242.572272 186.15625,241.341797 C186.660159,240.111322 187.348628,239.062504 188.22168,238.195312 C189.094731,237.328121 190.114252,236.654299 191.280273,236.173828 C192.446295,235.693357 193.6914,235.453125 195.015625,235.453125 C195.800785,235.453125 196.568356,235.546874 197.318359,235.734375 C198.068363,235.921876 198.78027,236.191404 199.454102,236.542969 C200.127933,236.894533 200.75781,237.325193 201.34375,237.834961 C201.92969,238.344729 202.44531,238.916012 202.890625,239.548828 L193.890625,250.394531 Z M196.351563,240.498047 C196.128905,240.416015 195.909181,240.363281 195.692383,240.339844 C195.475585,240.316406 195.250001,240.304688 195.015625,240.304688 C194.359372,240.304688 193.741214,240.424803 193.161133,240.665039 C192.581052,240.905275 192.077151,241.248045 191.649414,241.693359 C191.221678,242.138674 190.884767,242.674802 190.638672,243.301758 C190.392577,243.928714 190.269531,244.634762 190.269531,245.419922 C190.269531,245.595704 190.27832,245.794921 190.295898,246.017578 C190.313477,246.240235 190.342773,246.465819 190.383789,246.694336 C190.424805,246.922853 190.474609,247.142577 190.533203,247.353516 C190.591797,247.564454 190.667968,247.751952 190.761719,247.916016 L196.351563,240.498047 Z M210.097656,255 L205.298828,255 L205.298828,236.173828 L206.458984,236.173828 L208.041016,238.40625 C208.814457,237.703121 209.693354,237.161135 210.677734,236.780273 C211.662114,236.399412 212.681635,236.208984 213.736328,236.208984 L217.972656,236.208984 L217.972656,240.990234 L213.736328,240.990234 C213.232419,240.990234 212.757815,241.083983 212.3125,241.271484 C211.867185,241.458985 211.48047,241.716795 211.152344,242.044922 C210.824217,242.373049 210.566407,242.759763 210.378906,243.205078 C210.191405,243.650393 210.097656,244.124997 210.097656,244.628906 L210.097656,255 Z" id="obeder"></path>
        </g>
    </g>
</svg>