<?xml version="1.0" encoding="UTF-8"?>
<svg width="160px" height="160px" viewBox="0 0 160 160" version="1.1" xmlns="http://www.w3.org/2000/svg" xmlns:xlink="http://www.w3.org/1999/xlink">
    <!-- Generator: Sketch 42 (36781) - http://www.bohemiancoding.com/sketch -->
    <title>logo</title>
    <desc>Created with Sketch.</desc>
    <defs></defs>
    <g id="Intro" stroke="none" stroke-width="1" fill="none" fill-rule="evenodd">
        <g id="Mobile-Portrait" transform="translate(-80.000000, -55.000000)">
            <g id="logo" transform="translate(80.000000, 55.000000)">
                <g id="dish">
                    <g id="Group" fill-rule="nonzero">
                        <circle id="Oval" fill="#FB5D00" cx="80" cy="80" r="80"></circle>
                        <path d="M160,80 C160,78.6928125 159.963125,77.3953125 159.900937,76.1040625 C159.7025,75.9009375 159.509062,75.683125 159.305625,75.50875 C158.980938,75.1359375 114.85125,31.00625 114.511875,30.7134375 C113.169375,29.1759375 111.690938,28.26875 110.1375,28.26875 L110.1375,28.26875 C107.02375,28.26875 104.214375,31.8975 102.196562,36.9984375 C95.48625,33.4303125 87.8334375,31.4 79.70375,31.4 C73.5053125,31.4 67.591875,32.59375 62.1534375,34.734375 C61.9565625,34.3534375 60.6990625,33.0703125 60.24625,32.88625 C59.9790625,32.22375 59.334375,31.755 58.5775,31.755 C57.580625,31.755 56.7728125,32.563125 56.7728125,33.5596875 L56.7728125,35.4715625 C56.5775,35.215625 54.4959375,33.07 54.043125,32.8859375 C53.7759375,32.2234375 53.1328125,31.7546875 52.374375,31.7546875 C51.3775,31.7546875 50.5696875,32.5628125 50.5696875,33.559375 L50.5696875,35.47125 C50.374375,35.2153125 48.2928125,33.068125 47.84,32.885625 C47.5728125,32.223125 46.9296875,31.754375 46.17125,31.754375 C45.174375,31.754375 44.3665625,32.5625 44.3665625,33.5590625 L44.3665625,35.4709375 C44.17125,35.215 42.0896875,33.0678125 41.636875,32.8853125 C41.3696875,32.2228125 40.725,31.7540625 39.968125,31.7540625 C38.97125,31.7540625 38.1634375,32.5621875 38.1634375,33.55875 L38.1634375,55.21625 L38.1603125,55.3171875 L38.165,55.3828125 C34.076875,62.44375 31.7265625,70.6340625 31.7265625,79.3796875 C31.7265625,91.995625 36.6034375,103.467812 44.565,112.0325 C44.165,115.117188 43.8896875,117.442188 43.8896875,118.091563 L43.8896875,126.001875 L43.8578125,126.321875 C43.8578125,128.069063 44.7009375,129.606563 45.9875,130.595625 C46.275625,130.97 74.4803125,159.174688 74.8546875,159.462812 L75.2371875,159.845313 C76.81125,159.939063 78.3984375,160 80,160 C124.1825,160 160,124.1825 160,80 Z" id="Shape" fill="#E73B00"></path>
                        <circle id="Oval" fill="#FFFFFF" cx="79.7025" cy="79.3809375" r="47.9809375"></circle>
                        <circle id="Oval" fill="#D6EAF0" cx="79.7025" cy="79.3809375" r="38.448125"></circle>
                        <circle id="Oval" fill="#FFFFFF" cx="79.7025" cy="79.3809375" r="30.431875"></circle>
                        <path d="M99.0240625,54.08 C99.0240625,62.8175 108.525,65.82875 108.525,68.16 L108.525,86.74875 C108.525,89.035 104.755313,114.44625 104.755313,116.854375 L104.755313,124.764687 L104.723438,125.084687 C104.723438,128.071875 107.144375,130.492812 110.131563,130.492812 C113.11875,130.492812 115.539688,128.071875 115.539688,125.084687 L115.520625,124.907187 L115.520625,116.80625 C115.499688,114.419062 111.750938,89.0190625 111.750938,86.7471875 L111.750938,68.16 C111.750938,65.82875 121.251875,62.8175 121.251875,54.08 C121.251875,42.3425 116.275938,28.26875 110.14,28.26875 C104,28.26875 99.0240625,42.3440625 99.0240625,54.08 Z" id="Shape" fill="#AADDEE"></path>
                        <path d="M110.1375,130.492812 C113.121562,130.489688 115.5375,128.070312 115.5375,125.084687 L115.52,124.907187 L115.52,116.80625 C115.499063,114.419062 111.750313,89.0190625 111.750313,86.7471875 L111.750313,68.16 C111.750313,65.82875 121.25125,62.8175 121.25125,54.08 C121.25125,42.3425 116.275313,28.26875 110.139375,28.26875 L110.139375,28.26875 L110.139375,130.492813 L110.1375,130.492813 L110.1375,130.492812 Z" id="Shape" fill="#38B5C7"></path>
                        <path d="M47.9728125,33.56 C47.9728125,32.563125 47.1646875,31.7553125 46.168125,31.7553125 C45.1715625,31.7553125 44.3634375,32.5634375 44.3634375,33.56 L44.3634375,55.2175 L41.7696875,55.2175 L41.7696875,33.56 C41.7696875,32.563125 40.9615625,31.7553125 39.965,31.7553125 C38.968125,31.7553125 38.1603125,32.5634375 38.1603125,33.56 L38.1603125,55.2175 L38.1571875,55.3184375 C38.1571875,64.0559375 47.658125,67.0671875 47.658125,69.3984375 L47.658125,87.9871875 C47.658125,90.2734375 43.8884375,115.684687 43.8884375,118.092812 L43.8884375,126.003125 L43.8565625,126.323125 C43.8565625,129.310312 46.2775,131.73125 49.2646875,131.73125 C52.251875,131.73125 54.6728125,129.310312 54.6728125,126.323125 L54.6553125,126.145625 L54.6553125,118.046562 C54.634375,115.659375 50.885625,90.259375 50.885625,87.9875 L50.885625,69.39875 C50.885625,67.0675 60.3865625,64.05625 60.3865625,55.31875 L60.3834375,55.2178125 L60.3865625,55.2178125 L60.3865625,33.5603125 C60.3865625,32.5634375 59.5784375,31.755625 58.581875,31.755625 C57.585,31.755625 56.7771875,32.56375 56.7771875,33.5603125 L56.7771875,55.2178125 L54.1834375,55.2178125 L54.1834375,33.5603125 C54.1834375,32.5634375 53.3753125,31.755625 52.37875,31.755625 C51.381875,31.755625 50.5740625,32.56375 50.5740625,33.5603125 L50.5740625,55.2178125 L47.9803125,55.2178125 L47.9803125,33.5603125 L47.9728125,33.5603125 L47.9728125,33.56 Z" id="Shape" fill="#AADDEE"></path>
                        <path d="M52.3728125,31.7553125 C51.3759375,31.7553125 50.568125,32.5634375 50.568125,33.56 L50.568125,55.2175 L49.270625,55.2175 L49.270625,131.729375 C52.2546875,131.724687 54.670625,129.306875 54.670625,126.32125 L54.653125,118.044688 C54.6321875,115.6575 50.8834375,90.2575 50.8834375,87.985625 L50.8834375,69.3984375 C50.8834375,67.0671875 60.384375,64.0559375 60.384375,55.3184375 L60.384375,33.56 C60.384375,32.563125 59.57625,31.7553125 58.5796875,31.7553125 C57.5828125,31.7553125 56.775,32.5634375 56.775,33.56 L56.775,55.2175 L54.18125,55.2175 L54.18125,33.56 C54.1775,32.563125 53.369375,31.7553125 52.3728125,31.7553125 Z" id="Shape" fill="#38B5C7"></path>
                    </g>
                </g>
            </g>
        </g>
    </g>
</svg>